# xmcd
#
# Track frame offsets: 
#        150
#        14634
#        40461
#        66601
#        95845
#        126199
#        148257
#        166268
#        186256
#        209348
#        257633
#        286202
#
# Disc length: 4203 seconds
#
# Revision: 0
# Processed by: cddbd v1.5.2PL0 Copyright (c) Steve Scherf et al.
# Submitted via: ExactAudioCopy v1.0b2
#
DISCID=c310690c
DTITLE=Mountain Men - Mountain Men live
DYEAR=2010
DGENRE=Blues
TTITLE0=Fishin' blues
TTITLE1=I make you lose
TTITLE2=Blues before my time
TTITLE3=Last fair deal gone down - When the saints go marching in
TTITLE4=We shall overcome
TTITLE5=The time is coming
TTITLE6=My anger
TTITLE7=Another fool
TTITLE8=She shines
TTITLE9=Wish I was in heaven sitting down
TTITLE10=Hellhole
TTITLE11=Georgia on my mind
EXTD=
EXTT0=
EXTT1=
EXTT2=
EXTT3=
EXTT4=
EXTT5=
EXTT6=
EXTT7=
EXTT8=
EXTT9=
EXTT10=
EXTT11=
PLAYORDER=
